<svg width="157" height="72" viewBox="0 0 157 72" fill="none" xmlns="http://www.w3.org/2000/svg">
<path fill-rule="evenodd" clip-rule="evenodd" d="M29.3441 0.918782C31.3794 -0.879951 35.1373 0.0430833 37.7453 2.98259C40.3484 5.9221 40.8151 9.76098 38.7798 11.5644C36.7444 13.3632 32.9817 12.4401 30.3786 9.50064C27.7755 6.56113 27.3136 2.71752 29.3441 0.918782Z" fill="#F26722"/>
<path fill-rule="evenodd" clip-rule="evenodd" d="M19.0815 8.5968C29.5758 13.7895 41.4269 16.516 56.9301 14.6226C53.9998 18.8449 49.3662 20.8613 42.6828 20.2034C49.4913 38.3138 41.2537 48.4908 28.8877 55.9603L21.4922 56.4952C34.5126 51.6149 37.8904 37.6038 34.2527 26.2481C32.126 19.6353 25.9334 13.3114 19.0815 8.5968Z" fill="#F26722"/>
<path fill-rule="evenodd" clip-rule="evenodd" d="M22.2136 14.3101C-4.59697 42.6496 10.8581 64.0545 38.6455 52.1166C50.6891 46.9429 64.436 29.4905 64.5611 14.8402C64.6477 4.71525 59.1576 2.51417 42.5429 4.84306C65.0904 -1.36731 74.1845 6.61339 72.4234 18.93C70.1475 34.8725 41.1379 61.9008 15.3474 59.2832C-8.01806 56.9211 -3.89446 30.8016 22.2136 14.3101Z" fill="#F26722"/>
<path fill-rule="evenodd" clip-rule="evenodd" d="M57.4713 49.3981C59.4188 49.815 61.4312 49.8899 63.5412 49.3981V63.743C63.6518 71.5734 56.3497 73.7915 49.3662 70.5799L49.3727 68.9024C54.9224 71.0131 57.6209 70.1109 57.4681 64.8797V49.3981H57.4713Z" fill="black"/>
<path fill-rule="evenodd" clip-rule="evenodd" d="M68.5894 71.5152C69.776 71.3165 71.0245 71.3295 72.3607 71.5314L74.9096 65.0267L82.4328 65.0072L85.0174 71.5249C87.0494 71.2611 89.1041 71.2839 91.1361 71.5152L81.6525 49.4473C80.6414 49.7372 79.6595 49.7535 78.7134 49.4441L68.5894 71.5152ZM78.8305 55.926L81.7143 62.9616H75.8589L78.8305 55.926Z" fill="black"/>
<path fill-rule="evenodd" clip-rule="evenodd" d="M96.918 49.4147L106.606 49.3821C110.049 49.3951 113.314 51.6687 113.226 55.3852C113.112 60.0919 107.839 61.9746 105.199 61.9127L102.416 61.9257L102.377 71.5476C100.406 71.2154 98.6053 71.2545 96.918 71.5476V49.4147ZM102.409 51.1703L102.38 60.0105C105.917 60.2059 107.761 58.0366 107.806 55.3721C107.852 52.7045 105.563 51.0107 102.409 51.1703Z" fill="black"/>
<path fill-rule="evenodd" clip-rule="evenodd" d="M119.18 49.3821H132.486C132.304 50.3462 132.304 51.3104 132.49 52.2713C129.853 51.952 127.213 51.7371 124.576 51.838V58.7695C127.239 58.8769 129.847 58.7988 132.425 58.6131C132.262 59.5707 132.262 60.486 132.425 61.359C129.808 61.0984 127.19 60.9844 124.573 61.1016V71.6225C122.756 71.3131 120.955 71.3033 119.176 71.6225V49.3821H119.18Z" fill="black"/>
<path fill-rule="evenodd" clip-rule="evenodd" d="M134.353 71.5184C135.542 71.3197 136.882 71.3034 138.156 71.4891L140.705 64.9844L148.228 64.9648L150.82 71.5282C152.852 71.2676 154.968 71.2871 157 71.5184L147.448 49.405C146.437 49.6949 145.455 49.7112 144.509 49.4017L134.353 71.5184ZM144.626 55.8836L147.51 62.9193H141.655L144.626 55.8836Z" fill="black"/>
</svg>
